<svg id="visual" viewBox="0 0 900 600" width="900" height="600" xmlns="http://www.w3.org/2000/svg" xmlns:xlink="http://www.w3.org/1999/xlink" version="1.1"><rect x="0" y="0" width="900" height="600" fill="#212529"></rect><path d="M0 412L21.5 401.7C43 391.3 86 370.7 128.8 365.8C171.7 361 214.3 372 257.2 381.2C300 390.3 343 397.7 385.8 396.3C428.7 395 471.3 385 514.2 378C557 371 600 367 642.8 366.2C685.7 365.3 728.3 367.7 771.2 368.8C814 370 857 370 878.5 370L900 370L900 601L878.5 601C857 601 814 601 771.2 601C728.3 601 685.7 601 642.8 601C600 601 557 601 514.2 601C471.3 601 428.7 601 385.8 601C343 601 300 601 257.2 601C214.3 601 171.7 601 128.8 601C86 601 43 601 21.5 601L0 601Z" fill="#00d742"></path><path d="M0 466L21.5 456.3C43 446.7 86 427.3 128.8 416.2C171.7 405 214.3 402 257.2 414C300 426 343 453 385.8 458.8C428.7 464.7 471.3 449.3 514.2 438.2C557 427 600 420 642.8 418C685.7 416 728.3 419 771.2 428C814 437 857 452 878.5 459.5L900 467L900 601L878.5 601C857 601 814 601 771.2 601C728.3 601 685.7 601 642.8 601C600 601 557 601 514.2 601C471.3 601 428.7 601 385.8 601C343 601 300 601 257.2 601C214.3 601 171.7 601 128.8 601C86 601 43 601 21.5 601L0 601Z" fill="#63d669"></path><path d="M0 479L21.5 484C43 489 86 499 128.8 492C171.7 485 214.3 461 257.2 452.5C300 444 343 451 385.8 456.2C428.7 461.3 471.3 464.7 514.2 468.2C557 471.7 600 475.3 642.8 476.5C685.7 477.7 728.3 476.3 771.2 477.3C814 478.3 857 481.7 878.5 483.3L900 485L900 601L878.5 601C857 601 814 601 771.2 601C728.3 601 685.7 601 642.8 601C600 601 557 601 514.2 601C471.3 601 428.7 601 385.8 601C343 601 300 601 257.2 601C214.3 601 171.7 601 128.8 601C86 601 43 601 21.5 601L0 601Z" fill="#8dd48b"></path><path d="M0 527L21.5 525.3C43 523.7 86 520.3 128.8 522.8C171.7 525.3 214.3 533.7 257.2 537.5C300 541.3 343 540.7 385.8 534.8C428.7 529 471.3 518 514.2 510.3C557 502.7 600 498.3 642.8 503.3C685.7 508.3 728.3 522.7 771.2 528.7C814 534.7 857 532.3 878.5 531.2L900 530L900 601L878.5 601C857 601 814 601 771.2 601C728.3 601 685.7 601 642.8 601C600 601 557 601 514.2 601C471.3 601 428.7 601 385.8 601C343 601 300 601 257.2 601C214.3 601 171.7 601 128.8 601C86 601 43 601 21.5 601L0 601Z" fill="#afd1ac"></path><path d="M0 566L21.5 565C43 564 86 562 128.8 557C171.7 552 214.3 544 257.2 545.2C300 546.3 343 556.7 385.8 557.7C428.7 558.7 471.3 550.3 514.2 550.3C557 550.3 600 558.7 642.8 560.2C685.7 561.7 728.3 556.3 771.2 552.3C814 548.3 857 545.7 878.5 544.3L900 543L900 601L878.5 601C857 601 814 601 771.2 601C728.3 601 685.7 601 642.8 601C600 601 557 601 514.2 601C471.3 601 428.7 601 385.8 601C343 601 300 601 257.2 601C214.3 601 171.7 601 128.8 601C86 601 43 601 21.5 601L0 601Z" fill="#cccccc"></path></svg>